IKResults
version=1
nRows=9
nColumns=24
inDegrees=yes

Units are S.I. units (second, meters, Newtons, ...)
If the header above contains a line with 'inDegrees', this indicates whether rotational values are in degrees (yes) or radians (no).

endheader
time	pelvis_tilt	pelvis_list	pelvis_rotation	pelvis_tx	pelvis_ty	pelvis_tz	hip_flexion_r	hip_adduction_r	hip_rotation_r	knee_angle_r	ankle_angle_r	subtalar_angle_r	mtp_angle_r	hip_flexion_l	hip_adduction_l	hip_rotation_l	knee_angle_l	ankle_angle_l	subtalar_angle_l	mtp_angle_l	lumbar_extension	lumbar_bending	lumbar_rotation
      5.01500000	     10.02309362	      5.05373154	   -178.99991447	      0.30884407	      0.35781261	     -1.21167298	    100.21184086	    -37.73968051	      0.05893343	   -136.82728169	     43.96506821	     10.74415612	      0.00000000	    112.57986300	    -36.99325511	     19.41028415	   -135.52790493	     43.11296959	     25.98868684	      0.00000000	    -20.41955805	      5.21676966	      4.59558530
      5.02000000	     10.00960345	      5.05241908	   -179.01138315	      0.30896898	      0.35773399	     -1.21159202	    100.24591350	    -37.75328088	      0.07741279	   -136.83184678	     43.94062857	     10.76454698	      0.00000000	    112.61335182	    -37.01881208	     19.40906133	   -135.54109079	     43.09309844	     26.00301911	      0.00000000	    -20.45531578	      5.27319903	      4.51345415
      5.02500000	     10.00536482	      5.05582262	   -179.01133672	      0.30905961	      0.35768908	     -1.21140545	    100.28671316	    -37.79548264	      0.09864696	   -136.83167050	     43.90523032	     10.79358224	      0.00000000	    112.63517523	    -37.02127864	     19.39578570	   -135.55796810	     43.06088757	     26.01485665	      0.00000000	    -20.47551803	      5.28947378	      4.57092288
      5.03000000	     10.01334926	      5.05852127	   -179.03280781	      0.30913690	      0.35764312	     -1.21126642	    100.33202608	    -37.81350904	      0.11137951	   -136.82577487	     43.85795540	     10.83592865	      0.00000000	    112.66922718	    -37.04949008	     19.39029949	   -135.57487709	     43.06072601	     26.02594255	      0.00000000	    -20.48208016	      5.30787860	      4.59080717
      5.03500000	     10.02794543	      5.05117708	   -179.04582161	      0.30927405	      0.35764277	     -1.21112961	    100.37940249	    -37.83325710	      0.12833848	   -136.80232057	     43.83901359	     10.87433955	      0.00000000	    112.68572072	    -37.06820988	     19.35059824	   -135.58235959	     43.05983213	     26.04728543	      0.00000000	    -20.48778684	      5.31590538	      4.62028945
      5.04000000	     10.04649497	      5.03839829	   -179.05048107	      0.30942379	      0.35766948	     -1.21101677	    100.42562390	    -37.85537062	      0.15493002	   -136.77262880	     43.82265323	     10.91028051	      0.00000000	    112.69501278	    -37.07424238	     19.29978832	   -135.58117250	     43.02621437	     26.05496500	      0.00000000	    -20.48975773	      5.31343869	      4.64162370
      5.04500000	     10.05451076	      5.03021485	   -179.05614477	      0.30956266	      0.35776740	     -1.21093157	    100.45007572	    -37.86546117	      0.16609705	   -136.74039189	     43.79739180	     10.93895521	      0.00000000	    112.68147634	    -37.08103738	     19.25380917	   -135.56646854	     43.01609293	     26.05056178	      0.00000000	    -20.50309567	      5.31166562	      4.66960002
      5.05000000	     10.06846937	      5.01562082	   -179.05652939	      0.30968116	      0.35792332	     -1.21078877	    100.48561774	    -37.88282008	      0.19464632	   -136.70703625	     43.75670210	     10.95944767	      0.00000000	    112.66134844	    -37.08296030	     19.18039449	   -135.55479733	     43.01986989	     26.03636392	      0.00000000	    -20.50137808	      5.31128900	      4.69161292
      5.05500000	     10.06962637	      5.01885806	   -179.07048651	      0.30978312	      0.35810291	     -1.21064575	    100.49735118	    -37.89826154	      0.18121827	   -136.67476141	     43.70678749	     10.96824180	      0.00000000	    112.64272772	    -37.08794970	     19.14840608	   -135.54494392	     43.02184488	     26.01664604	      0.00000000	    -20.51928778	      5.32167933	      4.72984955
